<svg width="48" height="40" viewBox="0 0 48 40" fill="none" xmlns="http://www.w3.org/2000/svg">
<path d="M0.509888 20.0311H34.5099M34.5099 20.0311L32.7599 18.7811V18.7811C31.6056 17.9566 30.6333 16.9034 29.9034 15.687L29.5099 15.0311M34.5099 20.0311L32.7599 21.2811V21.2811C31.6056 22.1056 30.6333 23.1588 29.9034 24.3752L29.5099 25.0311" stroke="#27AE60" stroke-linecap="round" stroke-linejoin="round"/>
<path d="M14.2495 6.75001C16.8701 4.12941 20.209 2.34475 23.8438 1.62173C27.4787 0.898707 31.2464 1.26979 34.6704 2.68805C38.0943 4.10631 41.0209 6.50804 43.0799 9.58955C45.1389 12.671 46.2378 16.2939 46.2378 20C46.2378 23.7061 45.1389 27.329 43.0799 30.4105C41.0209 33.492 38.0943 35.8937 34.6704 37.312C31.2464 38.7302 27.4787 39.1013 23.8438 38.3783C20.209 37.6553 16.8701 35.8706 14.2495 33.25" stroke="#003C55" stroke-opacity="0.2"/>
</svg>
