<svg width="30" height="30" viewBox="0 0 30 30" fill="none" xmlns="http://www.w3.org/2000/svg">
<g clip-path="url(#clip0_2003_552)">
<path d="M15.4502 0C15.5252 6.08125 15.9439 9.5 18.2252 11.775C20.5064 14.0563 23.9252 14.4688 30.0064 14.55C29.7689 6.61875 23.3814 0.23125 15.4502 0Z" fill="black"/>
<path d="M11.781 11.775C14.0623 9.5 14.4748 6.08125 14.5498 0C6.61851 0.23125 0.231006 6.61875 -0.000244141 14.55C6.08101 14.475 9.49976 14.0563 11.781 11.775Z" fill="black"/>
<path d="M-9.76566e-05 15.4502C0.231152 23.3814 6.61865 29.7689 14.5499 30.0002C14.4749 23.9189 14.0562 20.5002 11.7749 18.2252C9.49365 15.9439 6.0749 15.5314 -0.00634766 15.4502H-9.76566e-05Z" fill="black"/>
<path d="M29.9997 15.4502C23.9185 15.5252 20.4997 15.9439 18.2185 18.2252C15.9372 20.5064 15.5247 23.9252 15.4435 30.0002C23.3747 29.7689 29.7622 23.3814 29.9935 15.4502H29.9997Z" fill="black"/>
<path fill-rule="evenodd" clip-rule="evenodd" d="M29.9998 15C29.9998 15.15 29.9998 15.3 29.9935 15.45C23.9185 15.525 20.4998 15.9437 18.2248 18.225C15.9435 20.5063 15.531 23.9188 15.4498 29.9938C15.2998 29.9938 15.1498 30 14.9998 30C14.8498 30 14.6998 30 14.5498 29.9938C14.4748 23.9188 14.056 20.5 11.7748 18.225C9.49976 15.9437 6.08101 15.525 0.00600586 15.45C0.00600586 15.3 -0.000244141 15.15 -0.000244141 15C-0.000244141 14.85 -0.000244141 14.7 0.00600586 14.55C6.08101 14.475 9.49976 14.0563 11.7748 11.775C14.056 9.5 14.4748 6.08125 14.5498 0.00625C14.6998 0.00625 14.8498 0 14.9998 0C15.1498 0 15.2998 0 15.4498 0.00625C15.5248 6.08125 15.9435 9.5 18.2248 11.775C20.506 14.0563 23.9185 14.4688 29.9935 14.55C29.9935 14.7 29.9998 14.85 29.9998 15Z" fill="white"/>
</g>
<defs>
<clipPath id="clip0_2003_552">
<rect width="30" height="30" fill="white"/>
</clipPath>
</defs>
</svg>
