<svg width="30" height="30" viewBox="0 0 30 30" fill="none" xmlns="http://www.w3.org/2000/svg">
<g clip-path="url(#clip0_2003_559)">
<path d="M14.9997 30C23.2839 30 29.9995 23.2843 29.9995 15.0002C29.9995 6.7161 23.2839 0.000488281 14.9997 0.000488281C6.71561 0.000488281 0 6.7161 0 15.0002C0 23.2843 6.71561 30 14.9997 30Z" fill="#CB2027"/>
<path d="M16.2111 20.0864C15.0771 19.9987 14.6006 19.4364 13.7113 18.8966C13.2225 21.461 12.6252 23.9194 10.8559 25.2036C10.3091 21.3276 11.6575 18.4163 12.2837 15.3262C11.2163 13.5294 12.4121 9.91271 14.6635 10.8039C17.4344 11.8996 12.2645 17.485 15.7351 18.1826C19.3585 18.911 20.8376 11.8956 18.5905 9.61378C15.3439 6.31933 9.14036 9.53891 9.90321 14.255C10.089 15.408 11.2805 15.758 10.3792 17.3489C8.30131 16.8888 7.68151 15.25 7.76119 13.0652C7.8898 9.48891 10.9746 6.98485 14.0688 6.63832C17.982 6.20035 21.6548 8.07525 22.1617 11.7561C22.732 15.9104 20.3951 20.4094 16.2111 20.0864Z" fill="white"/>
</g>
<defs>
<clipPath id="clip0_2003_559">
<rect width="30" height="30" rx="15" fill="white"/>
</clipPath>
</defs>
</svg>
