<svg width="30" height="30" viewBox="0 0 30 30" fill="none" xmlns="http://www.w3.org/2000/svg">
<rect width="30" height="30" rx="15" fill="#2AABEE"/>
<rect width="16" height="16" transform="translate(6 7)" fill="#2AABEE"/>
<path fill-rule="evenodd" clip-rule="evenodd" d="M7.67488 14.2325C11.6119 12.5172 14.2372 11.3863 15.5508 10.84C19.3014 9.27997 20.0807 9.00898 20.5887 9.00003C20.7004 8.99807 20.9502 9.02575 21.112 9.15705C21.2486 9.26792 21.2862 9.41768 21.3042 9.52279C21.3222 9.6279 21.3446 9.86735 21.3268 10.0545C21.1235 12.19 20.2441 17.3723 19.7967 19.7641C19.6074 20.7762 19.2346 21.1155 18.8737 21.1487C18.0895 21.2209 17.4939 20.6304 16.7343 20.1325C15.5457 19.3533 14.8742 18.8683 13.7204 18.1079C12.387 17.2292 13.2514 16.7463 14.0113 15.957C14.2102 15.7505 17.6657 12.6074 17.7326 12.3223C17.7409 12.2866 17.7487 12.1537 17.6697 12.0835C17.5908 12.0133 17.4742 12.0373 17.3901 12.0564C17.2709 12.0834 15.372 13.3385 11.6935 15.8216C11.1545 16.1918 10.6663 16.3721 10.2289 16.3626C9.74673 16.3522 8.81916 16.09 8.12961 15.8658C7.28384 15.5909 6.61165 15.4456 6.67018 14.9786C6.70067 14.7354 7.03557 14.4867 7.67488 14.2325Z" fill="white"/>
</svg>
