<svg width="26" height="26" viewBox="0 0 26 26" fill="none" xmlns="http://www.w3.org/2000/svg">
<path d="M0.701926 0.294936C1.08966 -0.0982837 1.71853 -0.0983403 2.10622 0.294936L12.9461 11.291L23.7801 0.301772L23.8543 0.233413C24.2442 -0.0894508 24.8208 -0.067035 25.1843 0.301772C25.5478 0.670585 25.57 1.25487 25.2517 1.6504L25.1843 1.72658L14.3504 12.7149L25.5955 24.1221L25.6629 24.1983C25.9811 24.5938 25.959 25.1781 25.5955 25.5469C25.2319 25.9157 24.6563 25.9381 24.2664 25.6152L24.1912 25.5469L12.9461 14.1397L1.69509 25.5537C1.30741 25.947 0.678528 25.9469 0.290793 25.5537C-0.096931 25.1604 -0.096931 24.5222 0.290793 24.1289L11.5418 12.7149L0.701926 1.71974C0.314202 1.32644 0.314202 0.688241 0.701926 0.294936Z" fill="#155C33"/>
</svg>
