<svg width="30" height="30" viewBox="0 0 30 30" fill="none" xmlns="http://www.w3.org/2000/svg">
<rect width="30" height="30" rx="15" fill="#0CC143"/>
<path d="M15.0018 7.99951H14.9983C11.1386 7.99951 8 11.139 8 14.9995C8 16.5308 8.4935 17.95 9.33263 19.1024L8.46025 21.7029L11.1509 20.8428C12.2578 21.576 13.5781 21.9995 15.0018 21.9995C18.8614 21.9995 22 18.8591 22 14.9995C22 11.1399 18.8614 7.99951 15.0018 7.99951ZM19.0749 17.8844C18.906 18.3613 18.2358 18.7568 17.7011 18.8723C17.3354 18.9501 16.8576 19.0123 15.2494 18.3455C13.1923 17.4933 11.8675 15.4029 11.7643 15.2673C11.6654 15.1316 10.933 14.1604 10.933 13.1559C10.933 12.1514 11.4431 11.6623 11.6488 11.4523C11.8176 11.2799 12.0968 11.2011 12.3645 11.2011C12.4511 11.2011 12.529 11.2055 12.599 11.209C12.8046 11.2178 12.9079 11.23 13.0435 11.5546C13.2124 11.9615 13.6236 12.966 13.6726 13.0693C13.7225 13.1725 13.7724 13.3125 13.7024 13.4481C13.6368 13.5881 13.579 13.6503 13.4757 13.7693C13.3725 13.8883 13.2745 13.9793 13.1713 14.107C13.0768 14.2181 12.97 14.3371 13.089 14.5428C13.208 14.744 13.6193 15.4151 14.2248 15.9541C15.0061 16.6498 15.6396 16.872 15.8663 16.9665C16.0351 17.0365 16.2364 17.0199 16.3598 16.8886C16.5164 16.7198 16.7098 16.4398 16.9066 16.1641C17.0466 15.9664 17.2234 15.9419 17.4089 16.0119C17.5979 16.0775 18.598 16.5719 18.8036 16.6743C19.0093 16.7775 19.1449 16.8265 19.1948 16.9131C19.2438 16.9998 19.2438 17.4066 19.0749 17.8844Z" fill="white"/>
</svg>
